<?xml version="1.0" encoding="iso-8859-1"?>
<!-- Generator: Adobe Illustrator 19.0.0, SVG Export Plug-In . SVG Version: 6.00 Build 0)  -->
<svg version="1.1" id="Layer_1" xmlns="http://www.w3.org/2000/svg" xmlns:xlink="http://www.w3.org/1999/xlink" x="0px" y="0px"
	 viewBox="0 0 512 512" style="enable-background:new 0 0 512 512;" xml:space="preserve">
<path style="fill:#06344C;" d="M343.228,12.976v205.332h29.726V12.976C372.954,6.686,343.228,6.686,343.228,12.976z"/>
<path style="fill:#FE604F;" d="M335.641,70.869c-13.585-7.071-49.464-10.385-68.079-10.385s-54.494,3.313-68.079,10.385
	c-13.587,7.071-37.625,16.537-37.625,158.86v257.497c0,9.084,7.432,16.516,16.516,16.516h178.374
	c9.084,0,16.516-7.432,16.516-16.516V229.728C373.263,87.406,349.226,77.94,335.641,70.869z"/>
<circle style="fill:#FF385C;" cx="268.342" cy="131.292" r="28.077"/>
<path style="fill:#06344C;" d="M204.169,299.225c3.128,15.591,32.651,40.579,64.552,40.579s61.276-24.988,64.389-40.579
	l-64.389-22.022L204.169,299.225z"/>
<path style="fill:#9BFFB4;" d="M199.822,250.659c0,25.988,4.347,48.566,4.347,48.566h128.94c0,0,4.347-22.579,4.347-48.566
	s-4.347-48.566-4.347-48.566h-128.94C204.169,202.092,199.822,224.671,199.822,250.659z"/>
<g>
	<path style="fill:#021729;" d="M380.649,12.976c0-3.902-2.253-12.976-23.12-12.976c-20.869,0-23.121,9.074-23.121,12.976v36.028
		c0,4.561,3.697,8.258,8.258,8.258c4.562,0,8.258-3.697,8.258-8.258V17.024c3.607-0.666,9.605-0.666,13.21,0v73.91
		c-8.104-18.402-17.899-23.484-24.624-26.965l-0.808-0.42C322.316,54.993,283.318,52.226,267,52.226
		c-16.319,0-55.317,2.768-71.702,11.322l-0.808,0.42c-7.534,3.899-18.919,9.791-27.463,34.178
		c-9.204,26.264-13.678,69.305-13.678,131.582v258.599c0,13.053,10.62,23.673,23.673,23.673h179.956
		c13.053,0,23.673-10.62,23.673-23.673V229.728c0-3.583-0.017-7.095-0.046-10.552c0.03-0.285,0.046-0.575,0.046-0.868V12.976
		H380.649z M364.133,488.327c0,3.946-3.211,7.157-7.157,7.157H177.021c-3.946,0-7.157-3.211-7.157-7.157V229.728
		c0-134.419,20.957-145.266,32.216-151.092l0.861-0.447c11.211-5.852,44.866-9.447,64.058-9.447s52.847,3.594,64.058,9.447
		l0.86,0.446c11.26,5.827,32.216,16.674,32.216,151.093v258.599H364.133z"/>
	<path style="fill:#021729;" d="M223.593,364.578h-13.613c-4.561,0-8.258,3.697-8.258,8.258c0,4.562,3.697,8.258,8.258,8.258h13.613
		c4.561,0,8.258-3.696,8.258-8.258C231.851,368.276,228.154,364.578,223.593,364.578z"/>
	<path style="fill:#021729;" d="M326.175,364.578h-13.614c-4.562,0-8.258,3.697-8.258,8.258c0,4.562,3.696,8.258,8.258,8.258h13.613
		c4.562,0,8.258-3.696,8.258-8.258C334.433,368.276,330.736,364.578,326.175,364.578z"/>
	<path style="fill:#021729;" d="M223.593,400.427h-13.613c-4.561,0-8.258,3.696-8.258,8.258s3.697,8.258,8.258,8.258h13.613
		c4.561,0,8.258-3.696,8.258-8.258S228.154,400.427,223.593,400.427z"/>
	<path style="fill:#021729;" d="M326.175,400.427h-13.614c-4.562,0-8.258,3.696-8.258,8.258s3.696,8.258,8.258,8.258h13.613
		c4.562,0,8.258-3.696,8.258-8.258C334.433,404.123,330.736,400.427,326.175,400.427z"/>
	<path style="fill:#021729;" d="M223.593,436.277h-13.613c-4.561,0-8.258,3.696-8.258,8.258c0,4.562,3.697,8.258,8.258,8.258h13.613
		c4.561,0,8.258-3.696,8.258-8.258C231.851,439.973,228.154,436.277,223.593,436.277z"/>
	<path style="fill:#021729;" d="M274.885,364.578h-13.613c-4.561,0-8.258,3.697-8.258,8.258c0,4.562,3.697,8.258,8.258,8.258h13.613
		c4.561,0,8.258-3.696,8.258-8.258C283.143,368.276,279.445,364.578,274.885,364.578z"/>
	<path style="fill:#021729;" d="M274.885,400.427h-13.613c-4.561,0-8.258,3.696-8.258,8.258s3.697,8.258,8.258,8.258h13.613
		c4.561,0,8.258-3.696,8.258-8.258C283.143,404.123,279.445,400.427,274.885,400.427z"/>
	<path style="fill:#021729;" d="M274.885,436.277h-13.613c-4.561,0-8.258,3.696-8.258,8.258c0,4.562,3.697,8.258,8.258,8.258h13.613
		c4.561,0,8.258-3.696,8.258-8.258C283.143,439.973,279.445,436.277,274.885,436.277z"/>
	<path style="fill:#021729;" d="M326.175,436.277h-13.614c-4.562,0-8.258,3.696-8.258,8.258c0,4.562,3.696,8.258,8.258,8.258h13.613
		c4.562,0,8.258-3.696,8.258-8.258C334.433,439.973,330.736,436.277,326.175,436.277z"/>
	<path style="fill:#021729;" d="M139.606,193.834c-4.561,0-8.258,3.696-8.258,8.258v20.996c0,4.562,3.697,8.258,8.258,8.258
		s8.258-3.696,8.258-8.258v-20.996C147.865,197.531,144.167,193.834,139.606,193.834z"/>
	<path style="fill:#021729;" d="M267.777,167.623c12.759,0,24.737-6.821,31.26-17.802c2.329-3.922,1.038-8.988-2.883-11.317
		c-3.921-2.329-8.988-1.037-11.317,2.883c-3.561,5.995-10.098,9.72-17.059,9.72c-10.928,0-19.819-8.891-19.819-19.819
		s8.891-19.819,19.819-19.819c6.962,0,13.499,3.726,17.059,9.722c2.33,3.922,7.395,5.214,11.317,2.885
		c3.921-2.328,5.213-7.395,2.885-11.317c-6.522-10.983-18.5-17.807-31.262-17.807c-20.035,0-36.335,16.3-36.335,36.335
		S247.741,167.623,267.777,167.623z"/>
	<path style="fill:#021729;" d="M332.548,193.834h-128.94c-3.958,0-7.361,2.81-8.109,6.697c-0.184,0.954-4.496,23.655-4.496,50.126
		s4.312,49.174,4.496,50.128c0.749,3.887,4.151,6.697,8.109,6.697h128.94c3.959,0,7.361-2.81,8.108-6.697
		c0.184-0.954,4.497-23.655,4.497-50.128c0-26.471-4.313-49.173-4.497-50.126C339.907,196.644,336.506,193.834,332.548,193.834z
		 M325.536,290.967H210.619c-1.244-8.396-3.101-23.709-3.101-40.308c0-16.598,1.858-31.912,3.101-40.307h114.918
		c1.244,8.38,3.098,23.665,3.098,40.307C328.637,267.257,326.779,282.572,325.536,290.967z"/>
	<path style="fill:#021729;" d="M268.158,348.062c16.278,0,34.709-7.442,50.567-20.418c3.529-2.889,4.05-8.092,1.162-11.622
		c-2.889-3.529-8.093-4.046-11.622-1.162c-12.767,10.447-27.759,16.685-40.107,16.685c-12.345,0-27.339-6.237-40.104-16.681
		c-3.53-2.888-8.734-2.368-11.621,1.163c-2.888,3.529-2.367,8.733,1.162,11.621C233.452,340.621,251.882,348.062,268.158,348.062z"
		/>
</g>
<g>
</g>
<g>
</g>
<g>
</g>
<g>
</g>
<g>
</g>
<g>
</g>
<g>
</g>
<g>
</g>
<g>
</g>
<g>
</g>
<g>
</g>
<g>
</g>
<g>
</g>
<g>
</g>
<g>
</g>
</svg>
